<svg width="266" height="81" viewBox="0 0 266 81" fill="none" xmlns="http://www.w3.org/2000/svg">
<path d="M266 0H12L0 80H254L266 0Z" fill="white"/>
<g clip-path="url(#clip0_9_212)">
<path d="M68.3515 41.0361C67.4884 40.3697 66.6036 40.5906 65.8167 41.2645C64.3197 42.5474 63.0154 42.8726 61.8116 42.6988C60.188 42.4652 58.2184 41.0232 58.2184 38.1024C58.2184 35.1788 60.2784 33.3398 61.9701 33.186C62.855 33.0885 63.7442 33.2826 64.5099 33.7428C65.1558 34.1353 65.7455 34.6203 66.2623 35.1788C66.918 35.8057 67.9564 35.7433 68.8488 35.1669C70.014 34.409 71.0161 32.6435 71.2838 31.4429C71.547 30.2547 71.2838 29.472 70.1725 28.9947C69.6289 28.7732 69.1021 28.5124 68.598 28.2114C67.0204 27.2447 65.1215 25.9242 61.6532 26.0311C56.2366 26.2003 52 31.6368 52 38.2341C52 44.8314 56.2341 49.9795 61.6532 49.8656C63.2713 49.8254 64.8607 49.4227 66.3091 48.6819C67.1203 48.2817 67.964 47.9513 68.8296 47.6975C69.7824 47.3997 70.482 46.7385 70.3702 45.2195C70.2749 43.8843 69.2757 41.7538 68.3515 41.0361Z" fill="#82BE28"/>
<path d="M86.1338 47.2178C85.951 46.5615 85.6684 45.9379 85.2977 45.3683C84.9564 44.7695 84.6617 44.1478 84.4084 43.5038C83.5356 41.2124 82.8576 38.8431 82.3847 36.4319C81.8075 33.8248 81.1123 30.2572 80.8639 29.0667C80.5787 27.6872 79.9447 26.8265 79.1529 26.4545C78.5482 26.2406 77.9097 26.1482 77.2708 26.1832C76.6929 26.1758 76.1861 26.1783 75.662 26.1783C75.1352 26.1783 74.6311 26.1783 74.0507 26.1832C73.4118 26.1482 72.7734 26.2406 72.1686 26.4545C71.3769 26.8265 70.7429 27.6872 70.4577 29.0667C70.4526 29.0839 70.4477 29.1061 70.4458 29.1264C71.3281 29.6106 71.5303 30.3566 71.2889 31.4402C71.0205 32.6435 70.0189 34.409 68.8537 35.1644C67.9615 35.7433 66.9232 35.8033 66.2672 35.1771C65.7507 34.6178 65.1607 34.1328 64.515 33.7401C63.7493 33.2799 62.8594 33.0861 61.9745 33.1832C60.2828 33.3374 58.2235 35.1788 58.2235 38.0999C58.2235 41.0207 60.1929 42.4652 61.8161 42.6988C63.0205 42.8726 64.3222 42.5447 65.8211 41.2618C66.6087 40.5879 67.4935 40.3672 68.354 41.0361C69.2801 41.752 70.2798 43.8843 70.377 45.2169C70.4894 46.7333 69.7898 47.397 68.8364 47.6951C67.9688 47.9489 67.1252 48.2765 66.314 48.6794C66.2723 48.6998 66.2311 48.717 66.1892 48.7366C66.5307 49.2713 67.1915 49.5544 68.1149 49.6193C69.1389 49.6887 70.1674 49.7013 71.1938 49.6561C72.4051 49.6288 73.2539 49.0747 73.5947 48.2422C73.7531 47.7197 73.9803 47.2228 74.2704 46.7634C75.016 45.9251 76.308 45.9251 77.0536 46.7634C77.3464 47.2228 77.5729 47.7197 77.7313 48.2422C78.0753 49.0747 78.9213 49.6288 80.1326 49.6561C81.5954 49.6887 83.0675 49.6715 84.072 49.6193C84.6276 49.6491 85.1709 49.4602 85.5904 49.0898C86.0709 48.5999 86.2757 47.8942 86.1338 47.2178ZM75.6596 41.3295C73.7387 41.3295 73.3343 39.3502 73.8679 37.4958C74.4776 35.3856 75.1352 35.1172 75.6596 35.1172C76.1812 35.1172 76.8396 35.3856 77.4486 37.4958C77.9829 39.3502 77.5777 41.3295 75.6596 41.3295Z" fill="#2D8C3C"/>
<path d="M137.831 37.0385C137.831 33.802 135.345 33.322 133.863 33.322C129.743 33.322 127.866 36.9989 127.866 40.4144C127.866 44.6475 129.784 46.7977 133.563 46.7977C134.918 46.7952 136.249 46.4571 137.446 45.8088L137.434 43.0839C136.441 43.7851 135.281 44.1931 134.077 44.2624C132.649 44.2624 131.384 43.4172 131.259 41.3988C134.772 41.2099 137.831 40.1363 137.831 37.0385ZM131.259 39.4795C131.367 36.1838 132.747 35.6467 133.638 35.6467C134.409 35.6315 135.02 36.3054 134.947 37.0906C134.95 38.4429 133.524 39.3204 131.259 39.4795ZM99.6168 42.0299L102.142 43.9442C100.889 45.7465 98.8411 46.7977 96.6769 46.7557C92.7617 46.7557 89.5903 43.7406 89.5903 38.0526C89.5903 32.6061 92.7617 29.3524 96.6769 29.3524C98.8267 29.3352 100.852 30.3917 102.095 32.1837L99.5824 34.0856C98.9752 33.0815 97.9199 32.4522 96.7643 32.4049C94.7681 32.4049 93.1473 34.5179 93.1473 38.0526C93.1473 41.7468 94.7681 43.7004 96.7643 43.7004C97.9299 43.6681 99.002 43.0419 99.6168 42.0299ZM113.391 33.8171H109.943V41.5578C109.943 42.9947 109.323 43.5587 108.251 43.5587C107.181 43.5587 106.581 42.9127 106.581 41.5578V33.8146H103.132V39.447C103.08 40.6307 103.158 41.8137 103.365 42.9795C103.729 44.3641 104.767 45.2888 106.695 45.5078C105.008 46.5966 103.782 48.1303 103.782 50.0966C103.782 52.1896 105.389 53.3604 107.931 53.3604C111.349 53.3604 112.982 51.1155 113.25 47.7821C113.401 45.9202 113.391 44.4958 113.391 43.7877V33.8122V33.8171ZM110.04 47.7428C110.001 48.9258 109.93 50.9912 108.238 50.9912C107.351 50.9912 106.778 50.3524 106.778 49.3655C106.778 47.747 108.044 45.7959 110.04 44.956H110.045C110.052 45.2888 110.081 46.5615 110.04 47.7428ZM198.038 37.5856V46.3776H194.601V38.6644C194.601 37.7645 194.352 36.4295 192.916 36.4295C191.746 36.4295 191.052 37.5533 191.052 38.9475V46.3776H187.588L187.595 33.8045H190.723V35.6911C191.571 33.9814 192.865 33.322 194.287 33.322C196.675 33.322 198.038 34.7565 198.038 37.5856ZM121.777 33.322C120.797 33.3174 119.844 33.6356 119.057 34.227V29.7106H115.607V45.8362C117.143 46.4673 118.786 46.7952 120.444 46.7977C124.334 46.7977 126.386 44.2624 126.386 39.4701C126.386 35.4475 124.794 33.322 121.777 33.322ZM120.641 44.501C120.09 44.5061 119.546 44.377 119.057 44.118C119.027 42.8751 119.01 38.4206 119.057 37.2975C119.052 36.3924 119.775 35.6588 120.665 35.6715C122.964 35.6715 122.964 38.8481 122.964 40.0465C122.967 42.2465 122.688 44.501 120.643 44.501H120.641ZM203.669 33.8045H206.757V36.4943H203.669V41.1353C203.618 41.8385 203.681 42.5475 203.857 43.2308C204.12 43.9042 204.793 44.3171 205.499 44.2376C205.936 44.2025 206.362 44.0862 206.757 43.8895V46.2879C205.95 46.619 205.087 46.7924 204.22 46.7952C201.76 46.7952 200.795 45.8929 200.431 44.4856C200.176 43.4918 200.205 41.4629 200.205 39.6659V29.7106H203.669V33.8045ZM173.944 34.2447C172.426 33.6454 170.814 33.3374 169.186 33.3321C165.225 33.3321 163.116 36.0538 163.116 39.8129C163.116 43.0247 165.091 45.0477 167.304 45.4703C165.588 46.564 164.336 48.1129 164.336 50.0991C164.336 52.1921 165.944 53.3629 168.484 53.3629C171.902 53.3629 173.535 51.118 173.803 47.7845C173.954 45.9251 173.944 44.4985 173.944 43.7929V34.2447ZM166.534 40.0587C166.534 37.2025 167.69 34.8882 170.498 35.9179V41.5578C170.498 42.9922 169.878 43.5567 168.809 43.5567C167.738 43.5567 166.534 42.9179 166.534 40.0587ZM170.598 47.7428C170.556 48.9258 170.485 50.9912 168.794 50.9912C167.906 50.9912 167.333 50.3524 167.333 49.3655C167.333 47.747 168.438 45.9901 170.598 44.956H170.6C170.607 45.2888 170.636 46.5615 170.598 47.7428ZM185.616 37.0409C185.616 33.8045 183.122 33.3247 181.645 33.3247C177.525 33.3247 175.651 36.9989 175.651 40.4144C175.651 44.6499 177.567 46.7977 181.347 46.7977C182.703 46.7952 184.034 46.4571 185.228 45.8106L185.218 43.0864C184.227 43.7851 183.063 44.1931 181.86 44.2649C180.431 44.2649 179.161 43.4197 179.041 41.4013C182.557 41.2099 185.613 40.1363 185.613 37.0385L185.616 37.0409ZM179.041 39.482C179.146 36.1856 180.529 35.6467 181.423 35.6467C182.193 35.6315 182.805 36.3078 182.732 37.0906C182.732 38.4429 181.309 39.3204 179.041 39.4795V39.482ZM153.588 29.7106L148.496 46.3803H151.806L152.876 42.8853H158.573L159.64 46.3803H162.951L157.861 29.7106H153.588ZM153.705 40.1534L155.723 33.5511L157.736 40.1534H153.705ZM145.804 33.5837C146.419 33.5385 147.028 33.6931 147.555 34.0182V37.2C146.95 36.8247 146.248 36.6509 145.541 36.7031C144.227 36.8202 143.226 37.956 143.252 39.3033V46.3803H139.813V33.8146H142.909V35.8254C143.374 34.575 144.498 33.705 145.804 33.5837ZM211.684 44.1931C211.754 44.0879 211.791 43.9664 211.791 43.8398C211.789 43.6731 211.72 43.514 211.598 43.4021C211.435 43.2557 211.223 43.1811 211.006 43.1985H210.026V45.5197H210.362V44.501H210.725L211.394 45.5197H211.796L211.125 44.4933C211.345 44.4787 211.547 44.3693 211.684 44.1931ZM210.362 43.4968H211.006C211.115 43.4918 211.225 43.5241 211.316 43.5885C211.396 43.6457 211.44 43.7379 211.435 43.8374C211.437 43.9315 211.396 44.0238 211.321 44.0837C211.223 44.1657 211.096 44.205 210.967 44.1951H210.362V43.4968ZM210.838 42.4174C209.134 42.4174 208.279 44.5207 209.485 45.7489C210.689 46.9792 212.752 46.1091 212.752 44.3718C212.752 43.2924 211.895 42.4202 210.838 42.4174ZM210.838 45.9724C209.439 45.9697 208.739 44.2453 209.729 43.2361C210.721 42.2265 212.413 42.9424 212.41 44.3718C212.41 45.2565 211.706 45.9724 210.838 45.9724Z" fill="black"/>
</g>
<defs>
<clipPath id="clip0_9_212">
<rect width="161" height="28" fill="white" transform="translate(52 26)"/>
</clipPath>
</defs>
</svg>
