<svg width="266" height="81" viewBox="0 0 266 81" fill="none" xmlns="http://www.w3.org/2000/svg">
<path d="M266 0H12L0 80H254L266 0Z" fill="white"/>
<g clip-path="url(#clip0_9_208)">
<path d="M49.2497 16.3387H41V30.2245H49.7115C51.62 30.2245 53.3438 29.5472 54.6059 28.3156C55.8988 27.0532 56.576 25.3599 56.576 23.4509C56.576 19.0789 53.7748 16.3387 49.2497 16.3387ZM53.6824 27.3303C52.6666 28.4388 51.343 28.993 49.8038 28.993H42.2313V17.5702H49.4344C52.8513 17.5702 55.1292 19.941 55.1292 23.3894C55.16 24.898 54.6059 26.3143 53.6824 27.3303Z" fill="#231815"/>
<path d="M61.8706 23.4817H69.9664V22.281H61.8706V17.5702H73.5372V16.3387H60.6085V30.2245H74.0913V29.0237H61.8706V23.4817Z" fill="#231815"/>
<path d="M90.7755 29.0237L79.1089 16.3387H77.2927V30.2245H78.5548V17.5395L90.2522 30.2245H92.0068V16.3387H90.7755V29.0237Z" fill="#231815"/>
<path d="M101.149 30.2245H102.381V17.5702H109.03V16.3387H94.5309V17.5702H101.149V30.2245Z" fill="#231815"/>
<path d="M118.018 29.3624C115.586 29.3624 113.462 28.7466 111.4 27.4227L110.661 28.4695C112.6 29.8242 115.155 30.5324 118.295 30.5324C122.943 30.5324 125.437 28.8698 125.437 26.068C125.437 24.5901 124.79 23.5741 123.405 22.9891C122.02 22.4041 120.142 22.3425 117.71 22.2502C114.201 22.0962 112.416 21.6344 112.416 19.8486C112.416 18.1552 114.263 17.17 117.741 17.17C119.865 17.17 121.743 17.5702 123.497 18.5555L124.39 17.601C122.759 16.5234 120.542 16 117.679 16C113.339 16 110.969 17.5087 110.969 20.0026C110.969 21.3881 111.615 22.2502 113 22.7736C114.263 23.2662 116.017 23.3278 118.357 23.4201C122.143 23.6049 123.99 24.1591 123.99 26.1296C123.959 28.1616 121.866 29.3624 118.018 29.3624Z" fill="#231815"/>
<path d="M136.703 30.6248C141.228 30.6248 143.999 28.6543 143.999 25.8833V16.3387H142.767V25.3906C142.767 28.0385 140.736 29.3932 136.703 29.3932C132.671 29.3932 130.608 28.0385 130.608 25.3906V16.3387H129.346V25.8833C129.377 28.6235 132.178 30.6248 136.703 30.6248Z" fill="#231815"/>
<path d="M103.335 36.0436H92.684V54.0552H103.92C106.382 54.0552 108.66 53.1623 110.292 51.5613C111.985 49.8987 112.847 47.7127 112.847 45.2495C112.847 39.5536 109.214 36.0436 103.335 36.0436ZM108.629 49.8987C107.398 51.2226 105.859 51.8692 104.043 51.8692H94.9003V38.1989H103.581C107.644 38.1989 110.384 41.0007 110.384 45.1572C110.384 46.9737 109.768 48.6363 108.629 49.8987Z" fill="#231815"/>
<path d="M119.434 36.0436H117.218V64H119.434V36.0436Z" fill="#231815"/>
<path d="M133.532 46.9429H142.613C141.536 50.5145 138.766 52.4234 134.548 52.4234C129.5 52.4234 126.114 49.4676 126.114 45.034C126.114 42.848 126.976 41.0315 128.669 39.5844C130.177 38.322 132.27 37.6139 134.548 37.6139C137.442 37.6139 139.535 38.5068 141.598 40.6004L141.782 40.7851L143.783 39.5228L143.506 39.2457C141.228 36.6902 138.365 35.4894 134.548 35.4894C131.686 35.4894 129.038 36.3823 127.068 38.0141C124.883 39.8307 123.774 42.2014 123.774 45.034C123.774 47.8974 124.883 50.2989 127.068 52.0847C128.977 53.6857 131.655 54.5478 134.548 54.5478C138.304 54.5478 141.444 53.1623 143.444 50.6992C144.522 49.3137 145.107 47.5587 145.291 45.1264L145.322 44.7877H133.532V46.9429Z" fill="#231815"/>
<path d="M151.879 16.1539H149.663V54.5478H151.879V16.1539Z" fill="#231815"/>
<path d="M173.858 36.0436H155.08V38.1989H163.361V54.0552H165.577V38.1989H173.858V36.0436Z" fill="#231815"/>
<path d="M182.169 36.0436L172.657 54.0552H175.212L177.644 49.56H189.465L191.835 54.0552H194.39L184.878 36.0436H182.169ZM188.295 47.374H178.752L183.523 38.3836L188.295 47.374Z" fill="#231815"/>
<path d="M199.961 51.8692V36.0436H197.714V54.0552H225.696V51.8692H199.961Z" fill="#231815"/>
</g>
<defs>
<clipPath id="clip0_9_208">
<rect width="184.696" height="48" fill="white" transform="translate(41 16)"/>
</clipPath>
</defs>
</svg>
