<svg width="266" height="81" viewBox="0 0 266 81" fill="none" xmlns="http://www.w3.org/2000/svg">
<path d="M266 0H12L0 80H254L266 0Z" fill="white"/>
<path fill-rule="evenodd" clip-rule="evenodd" d="M142.643 52.1301C136.07 56.9841 126.511 59.5761 118.292 59.5761C106.769 59.5761 96.3929 55.3147 88.5446 48.2246C87.928 47.667 88.48 46.9077 89.22 47.3406C97.6906 52.2706 108.164 55.2343 118.981 55.2343C126.278 55.2343 134.304 53.7247 141.684 50.5921C142.799 50.1184 143.731 51.322 142.641 52.1312M145.381 48.9987C144.543 47.922 139.828 48.4909 137.695 48.7425C137.049 48.8219 136.95 48.2586 137.532 47.854C141.294 45.2043 147.471 45.9693 148.193 46.8567C148.915 47.7441 148.006 53.94 144.469 56.8957C143.925 57.3491 143.408 57.1077 143.649 56.5059C144.443 54.5225 146.224 50.0776 145.381 48.9975" fill="#FF9900"/>
<path fill-rule="evenodd" clip-rule="evenodd" d="M137.843 29.1506V26.5757C137.841 26.4895 137.856 26.4037 137.888 26.3236C137.92 26.2434 137.968 26.1707 138.029 26.1097C138.09 26.0487 138.163 26.0008 138.243 25.9689C138.323 25.9369 138.409 25.9217 138.495 25.924H150.023C150.393 25.924 150.69 26.1904 150.69 26.5757V28.78C150.685 29.1495 150.372 29.6334 149.822 30.3984L143.849 38.9279C146.07 38.8735 148.412 39.2044 150.425 40.3389C150.878 40.595 150.991 40.9702 151.037 41.3408V44.0891C151.037 44.4631 150.622 44.9028 150.187 44.6762C146.639 42.8175 141.928 42.6135 138.007 44.6954C137.607 44.913 137.187 44.4778 137.187 44.1038V41.4938C137.187 41.0744 137.192 40.3604 137.611 39.7224L144.532 29.7966H138.52C138.151 29.7966 137.854 29.536 137.854 29.1506M95.7866 45.219H92.28C91.9446 45.1941 91.6794 44.9425 91.6533 44.6218V26.6199C91.6533 26.2595 91.9548 25.9739 92.3288 25.9739H95.5996C95.9396 25.9886 96.2116 26.2504 96.2365 26.5746V28.9274H96.3011C97.1545 26.6528 98.7582 25.592 100.918 25.592C103.114 25.592 104.485 26.6528 105.472 28.9274C106.322 26.6528 108.249 25.592 110.317 25.592C111.787 25.592 113.395 26.1983 114.377 27.5606C115.487 29.0747 115.261 31.2756 115.261 33.2046L115.253 44.5674C115.253 44.9278 114.951 45.219 114.577 45.219H111.064C110.724 45.1941 110.433 44.913 110.433 44.5674V35.0134C110.433 34.254 110.501 32.3591 110.334 31.6394C110.073 30.4313 109.288 30.0902 108.271 30.0902C107.421 30.0902 106.535 30.6568 106.175 31.5658C105.814 32.4747 105.849 33.9934 105.849 35.0145V44.5572C105.849 44.9176 105.548 45.2088 105.174 45.2088H101.661C101.306 45.1839 101.029 44.9028 101.029 44.5572L101.025 35.0145C101.025 33.0062 101.356 30.0505 98.8636 30.0505C96.343 30.0505 96.4416 32.9314 96.4416 35.0145V44.5572C96.4416 44.9176 96.1402 45.2088 95.7662 45.2088M160.616 25.6067C165.82 25.6067 168.637 30.0766 168.637 35.7591C168.637 41.2501 165.524 45.6055 160.616 45.6055C155.516 45.6055 152.722 41.1356 152.722 35.5664C152.722 29.9621 155.539 25.5931 160.616 25.5931M160.645 29.2685C158.061 29.2685 157.897 32.7909 157.897 34.9862C157.897 37.1814 157.863 41.8825 160.614 41.8825C163.332 41.8825 163.461 38.0938 163.461 35.7852C163.461 34.2665 163.397 32.4498 162.94 31.0093C162.546 29.7558 161.761 29.2674 160.646 29.2674M175.387 45.219H171.894C171.554 45.1941 171.263 44.913 171.263 44.5674L171.259 26.561C171.288 26.23 171.579 25.9739 171.934 25.9739H175.187C175.493 25.9886 175.744 26.196 175.814 26.4771V29.2311H175.878C176.86 26.7695 178.235 25.5954 180.659 25.5954C182.245 25.5954 183.766 26.162 184.753 27.717C185.66 29.1563 185.66 31.5794 185.66 33.3213V44.6546C185.62 44.972 185.329 45.2213 184.984 45.2213H181.473C181.153 45.1964 180.886 44.9606 180.852 44.6546V34.8774C180.852 32.9088 181.079 30.0267 178.657 30.0267C177.804 30.0267 177.019 30.599 176.617 31.466C176.124 32.5654 176.059 33.6613 176.059 34.8751V44.5696C176.055 44.93 175.749 45.2213 175.374 45.2213M128.652 36.608C128.652 37.9748 128.686 39.1013 127.995 40.3276C127.437 41.3136 126.55 41.921 125.567 41.921C124.221 41.921 123.431 40.8954 123.431 39.3801C123.431 36.3904 126.11 35.8475 128.65 35.8475V36.6068M132.186 45.1567C131.954 45.3641 131.619 45.3788 131.359 45.2406C130.195 44.2738 129.983 43.8239 129.346 42.9025C127.421 44.8654 126.056 45.4525 123.563 45.4525C120.609 45.4525 118.314 43.6324 118.314 39.9864C118.314 37.1395 119.853 35.2015 122.054 34.254C123.958 33.4154 126.617 33.268 128.65 33.0357V32.5824C128.65 31.7482 128.714 30.7622 128.219 30.0414C127.795 29.3954 126.976 29.1291 126.251 29.1291C124.913 29.1291 123.723 29.8148 123.433 31.2371C123.374 31.5544 123.142 31.8638 122.821 31.8786L119.421 31.5136C119.136 31.449 118.815 31.219 118.9 30.777C119.68 26.6516 123.41 25.4095 126.742 25.4095C128.449 25.4095 130.68 25.8628 132.026 27.1548C133.733 28.7483 133.57 30.8744 133.57 33.1887V38.6548C133.57 40.2981 134.25 41.0178 134.892 41.9074C135.114 42.2248 135.164 42.6033 134.878 42.8402L132.196 45.1794L132.192 45.168M82.6694 36.6193C82.6694 37.9861 82.7034 39.1126 82.012 40.3389C81.4544 41.3249 80.5727 41.9324 79.5844 41.9324C78.238 41.9324 77.4538 40.9067 77.4538 39.3914C77.4538 36.4017 80.133 35.8588 82.6671 35.8588V36.6182M86.2031 45.168C85.9708 45.3754 85.6364 45.3902 85.3758 45.2519C84.2118 44.2852 84.0158 43.8352 83.363 42.9138C81.4386 44.8768 80.0763 45.4638 77.5807 45.4638C74.6318 45.465 72.3334 43.6448 72.3334 40C72.3334 37.1531 73.877 35.2151 76.0734 34.2676C77.9774 33.429 80.6362 33.2816 82.6694 33.0493V32.596C82.6694 31.7618 82.734 30.7758 82.2455 30.055C81.8148 29.409 80.9988 29.1427 80.2769 29.1427C78.9396 29.1427 77.7462 29.8284 77.4436 31.2507C77.3846 31.568 77.1523 31.8774 76.8372 31.8922L73.4327 31.5272C73.1471 31.4626 72.832 31.2326 72.9114 30.7906C73.6956 26.6652 77.422 25.4231 80.754 25.4231C82.4608 25.4231 84.6912 25.8764 86.0376 27.1684C87.7444 28.7619 87.5812 30.888 87.5812 33.2023V38.6684C87.5812 40.3117 88.2612 41.0314 88.9038 41.921C89.1305 42.2384 89.1804 42.6169 88.8925 42.8538L86.2178 45.1794L86.2065 45.168" fill="#221F1F"/>
</svg>
